<?xml version="1.0" standalone="no"?>
<!DOCTYPE svg PUBLIC "-//W3C//DTD SVG 1.1//EN" "http://www.w3.org/Graphics/SVG/1.1/DTD/svg11.dtd" >
<svg xmlns="http://www.w3.org/2000/svg">
<metadata>
This is a custom SVG webfont generated by Font Squirrel.
Designer    : SoftMaker Software GmbH
Foundry     : SoftMaker Software GmbH
Foundry URL : http://www.softmaker.de
</metadata>
<defs>
<font id="webfontH9pO81ke" horiz-adv-x="631" >
<font-face units-per-em="1000" ascent="800" descent="-200" />
<missing-glyph horiz-adv-x="193" />
<glyph unicode=" "  horiz-adv-x="193" />
<glyph unicode="&#x09;" horiz-adv-x="193" />
<glyph unicode="&#xa0;" horiz-adv-x="193" />
<glyph unicode="!" horiz-adv-x="140" d="M56 181v511h40v-511h-40zM91 8l-16 -7l-14 6l-5 13q3 23 22 23q18 0 18 -20q-3 -11 -5 -15z" />
<glyph unicode="&#x22;" horiz-adv-x="235" d="M142 503v199h39v-199h-39zM52 503v199h40v-199h-40z" />
<glyph unicode="#" horiz-adv-x="593" d="M439 417l-20 -145h100v-52h-111l-30 -225h-54l28 227h-139l-32 -227h-52l32 227h-109v52h116l22 145h-112v52h119l36 211h54l-31 -213h138l31 213h53l-31 -211h99v-54h-107zM247 417l-22 -145h142l21 145h-141z" />
<glyph unicode="$" horiz-adv-x="582" d="M301 3v-60h-38v60h-201v38h201l-1 385q-200 0 -200 143q0 135 201 135v55h34v-55h195v-40h-193v-201q98 0 168.5 -69.5t70.5 -168.5q0 -91 -73 -156.5t-164 -65.5zM263 664l-51 -1q-45 0 -79 -31q-34 -29 -34 -73q0 -41 38 -68.5t81 -27.5h45v201zM299 426v-385h27 q68 0 120 62t52 132q0 82 -57.5 136.5t-141.5 54.5z" />
<glyph unicode="%" horiz-adv-x="597" d="M175 469q-50 0 -85.5 36t-35.5 85t36.5 84.5t85.5 35.5q48 0 84.5 -36.5t36.5 -83.5q0 -48 -36 -86q-37 -35 -86 -35zM100 5h-46l431 697h49zM417 -1q-50 0 -86 35t-36 85t35.5 85.5t85.5 35.5q48 0 85 -36t37 -86q0 -48 -36.5 -83.5t-84.5 -35.5zM177 671q-33 0 -57 -24 t-24 -56q0 -35 23.5 -59t58.5 -24q32 0 55.5 24.5t23.5 56.5q0 33 -23.5 57.5t-56.5 24.5zM419 202q-32 0 -58 -24q-11 -12 -17 -26t-6 -32q0 -33 23 -59q24 -24 57 -24q32 0 56 24.5t24 58.5t-23 58t-56 24z" />
<glyph unicode="&#x26;" horiz-adv-x="572" d="M282 3q-97 0 -161.5 65t-64.5 161q0 142 141 204q-44 12 -74 51q-28 40 -28 87q0 50 42.5 88.5t92.5 38.5h283v-36h-282q-101 0 -101 -101q0 -107 152 -107l49 1l42 2v-36q-125 0 -189 -34q-85 -47 -85 -161q0 -69 49 -127t117 -58h213v414h37v-452h-233z" />
<glyph unicode="'" horiz-adv-x="169" d="M52 482l-1 33q35 15 35 55v49h-34v83h69l-1 -120q0 -34 -18.5 -62t-49.5 -38z" />
<glyph unicode="(" horiz-adv-x="321" d="M84 307q0 -255 170 -415h-49q-157 175 -157 418q0 223 165 394h48q-177 -168 -177 -397z" />
<glyph unicode=")" horiz-adv-x="321" d="M114 -112h-48q171 165 171 414q0 105 -48.5 216t-127.5 182h47q165 -165 165 -394q0 -245 -159 -418z" />
<glyph unicode="*" horiz-adv-x="402" d="M240 556h104v-38h-109l102 -151h-40l-97 134l-101 -140h-40l108 155h-111v38h109l-105 154h40l102 -141l101 141h40z" />
<glyph unicode="+" horiz-adv-x="620" d="M333 227v-226h-52v226h-225v59h225v228h54v-228h226v-59h-228z" />
<glyph unicode="," horiz-adv-x="141" d="M54 -177v220h38v-220h-38z" />
<glyph unicode="-" horiz-adv-x="297" d="M52 332v37h191v-37h-191z" />
<glyph unicode="." horiz-adv-x="141" d="M84 3l-10 -2l-11 2l-9 16q0 18 19 18q15 0 18 -10l1 -12z" />
<glyph unicode="/" horiz-adv-x="470" d="M97 3h-40l312 693h45z" />
<glyph unicode="0" horiz-adv-x="817" d="M407 -1q-148 0 -255.5 104.5t-107.5 251.5t107.5 250.5t255.5 103.5q147 0 254.5 -104t107.5 -251q0 -146 -107.5 -250.5t-254.5 -104.5zM406 673q-134 0 -229 -95t-95 -229q0 -132 96 -226t227 -94q133 0 229 94.5t96 225.5q0 132 -96 228t-228 96z" />
<glyph unicode="1" horiz-adv-x="147" d="M58 7v691h40v-691h-40z" />
<glyph unicode="2" d="M86 225q0 -110 98 -158q74 -34 208 -34l101 3l83 3v-36h-272q-104 0 -178 61q-78 65 -78 167q0 158 129 203q13 5 238 29q129 14 129 98q0 99 -153 99h-291v38h291q191 0 191 -133q0 -98 -71 -126q-37 -14 -156 -14q-269 0 -269 -200z" />
<glyph unicode="3" horiz-adv-x="576" d="M304 5h-252v35l73 -2l80 -2q129 0 193 35q89 47 89 166q0 111 -87 158q-65 33 -191 33l-83 -2l-72 -2v37h273q121 0 121 98q0 109 -223 109q-14 0 -52.5 -2t-50.5 -2l-72 -4v36h296q56 0 97 -40t41 -97q0 -87 -80 -126q53 -30 86 -83q16 -26 24 -53t8 -59 q0 -94 -63.5 -163.5t-154.5 -69.5z" />
<glyph unicode="4" horiz-adv-x="522" d="M432 3v416h-378v39l371 232h44v-687h-37zM431 646l-312 -191h312v191z" />
<glyph unicode="5" horiz-adv-x="548" d="M256 1h-204v26l124 -2q66 0 113.5 7.5t82.5 24.5q94 45 94 162q0 120 -95 166q-67 32 -202 32l-58 -1l-55 -1v275h406v-40h-368v-201h76q158 0 228 -35q104 -51 104 -192q0 -100 -71.5 -160.5t-174.5 -60.5z" />
<glyph unicode="6" horiz-adv-x="563" d="M284 3q-96 0 -166 68t-70 164q0 79 51 150l231 315h45l-177 -247q18 5 43.5 9t43.5 4q94 0 159 -68t65 -163q0 -92 -67 -162t-158 -70zM284 426q-77 0 -138 -54t-61 -131q0 -82 55 -142t136 -60q79 0 138.5 56t59.5 134q0 77 -56.5 137t-133.5 60z" />
<glyph unicode="7" horiz-adv-x="548" d="M218 3h-40l287 651h-413v40h448v-56z" />
<glyph unicode="8" horiz-adv-x="584" d="M298 -11q-93 0 -168.5 66.5t-75.5 160.5q0 75 43.5 139.5t113.5 94.5q-58 50 -58 122q0 63 42.5 105t106.5 42q57 0 103.5 -42.5t46.5 -100.5q0 -74 -63 -127q65 -24 106 -86.5t41 -135.5q0 -96 -71 -167t-167 -71zM302 678q-48 0 -77.5 -34t-29.5 -83q0 -38 34 -68 q34 -28 75 -28q42 0 73 34t31 77t-32 72q-30 30 -74 30zM302 427q-84 0 -145 -61t-61 -145q0 -79 59.5 -136.5t140.5 -57.5t142.5 60.5t61.5 142.5q0 77 -60 137t-138 60z" />
<glyph unicode="9" horiz-adv-x="590" d="M247 1h-47l182 241q-47 -14 -89 -14q-96 0 -166.5 67t-70.5 162q0 100 69 172t167 72q99 0 173.5 -68t74.5 -166q0 -92 -119 -251zM298 664q-82 0 -141 -57.5t-59 -138.5q0 -77 54.5 -140t131.5 -63q83 0 147.5 57.5t64.5 141.5q0 82 -58 141t-140 59z" />
<glyph unicode=":" horiz-adv-x="143" d="M69 353q-12 0 -13 5l-5 15q0 7 8 18l9 2q9 0 15 -6q6 -4 7 -16q0 -9 -15 -17zM73 1q-6 0 -12.5 6.5t-6.5 13.5q0 9 9 18l9 2q6 0 13 -6t9 -14q0 -15 -10 -18z" />
<glyph unicode=";" horiz-adv-x="138" d="M70 355q-7 -3 -17 10l-4 9q3 19 20 19q11 0 19 -8l2 -12q0 -11 -15 -17zM54 -176v208h34v-208h-34z" />
<glyph unicode="&#x3c;" horiz-adv-x="595" d="M54 235v50l495 225v-62l-421 -187l421 -200v-58z" />
<glyph unicode="=" horiz-adv-x="613" d="M56 324v54h514v-54h-514zM56 131v53h514v-53h-514z" />
<glyph unicode="&#x3e;" horiz-adv-x="588" d="M52 3v60l422 198l-422 189v60l496 -225v-50z" />
<glyph unicode="?" horiz-adv-x="570" d="M277 417v-236h-38v274l41 -1l40 -1q154 0 154 102q0 41 -37 71q-35 26 -78 26h-307v38h317q57 0 103 -40t46 -96q0 -88 -83 -119q-51 -18 -158 -18zM262 -3q-14 3 -20 20q3 18 22 22l12 -6l6 -13q0 -14 -7 -17l-7 -3z" />
<glyph unicode="@" horiz-adv-x="800" d="M529 114q-60 0 -91 56q-50 -52 -109 -52q-63 0 -103 41q-38 43 -38 106q0 100 69.5 200t167.5 100q69 0 115 -68l13 42h64q-39 -108 -115 -344q5 -33 25 -33q75 0 128 101q44 85 44 166q0 102 -88.5 175.5t-194.5 73.5q-144 0 -236 -97t-92 -242q0 -124 98 -219t223 -95 q152 0 250 123h49q-52 -71 -131 -114t-168 -43q-143 0 -252 105t-109 250t103 257t248 112q136 0 237 -79q111 -84 111 -216q0 -100 -58 -195q-67 -111 -160 -111zM424 512q-64 0 -119 -89q-48 -78 -48 -149q0 -40 23 -70t62 -30q60 0 114 96q47 84 47 153q0 37 -21 63 t-58 26z" />
<glyph unicode="A" d="M542 1v431h-452v-429h-36v433q0 121 73 202t191 81q109 0 186 -78q38 -39 57 -84.5t19 -102.5v-453h-38zM319 686q-86 0 -154 -66q-34 -33 -51.5 -70t-17.5 -81l446 1q0 85 -68.5 150.5t-154.5 65.5z" />
<glyph unicode="B" horiz-adv-x="639" d="M359 1h-290v705h310q75 0 123 -30q59 -36 59 -106q0 -84 -82 -126q122 -68 122 -205q0 -100 -70 -170q-35 -34 -77 -51t-95 -17zM378 667h-269v-196l260 1q149 0 149 96q0 99 -140 99zM367 430h-260v-387h248q82 0 144.5 57t62.5 139q0 78 -58 134.5t-137 56.5z" />
<glyph unicode="C" horiz-adv-x="635" d="M405 1q-143 0 -244 102.5t-101 248.5q0 156 109 255t266 99h153v-40q-227 0 -329 -46q-160 -71 -160 -277q0 -192 164 -262q103 -44 325 -44v-36h-183z" />
<glyph unicode="D" d="M242 3h-177v703h148q155 0 265.5 -100.5t110.5 -255.5q0 -145 -101 -246t-246 -101zM222 667h-119v-634h133q131 0 222.5 90.5t91.5 222.5t-98 226.5t-230 94.5z" />
<glyph unicode="E" horiz-adv-x="626" d="M65 1v707h519v-42h-473v-199h473v-45h-473v-381h473v-40h-519z" />
<glyph unicode="F" horiz-adv-x="635" d="M113 656v-193h486v-37h-486v-425h-44v699h536v-44h-492z" />
<glyph unicode="G" horiz-adv-x="645" d="M103 352q0 -143 105 -229q98 -80 245 -80h106v390h-136v40h176v-472h-137q-171 0 -282 90q-118 97 -118 265q0 155 112 255q109 95 265 95h164v-39l-174 1q-132 0 -229 -91.5t-97 -224.5z" />
<glyph unicode="H" horiz-adv-x="633" d="M546 3v419h-454v-421h-38v699h36v-237h454v237h36v-697h-34z" />
<glyph unicode="I" horiz-adv-x="209" d="M88 3v695h38v-695h-38z" />
<glyph unicode="J" horiz-adv-x="620" d="M288 -13q-104 0 -184 75q-40 38 -60.5 83t-20.5 97l42 2q0 -84 66 -153q63 -66 149 -66t151 59.5t65 144.5v473h42v-475q0 -96 -76 -168t-174 -72z" />
<glyph unicode="K" horiz-adv-x="637" d="M559 -1l-340 501l-106 -54v-443h-39v697h43v-207l401 207h68l-330 -182l346 -519h-43z" />
<glyph unicode="L" horiz-adv-x="624" d="M71 3v705h32v-669h488v-36h-520z" />
<glyph unicode="M" horiz-adv-x="751" d="M657 3v644l-283 -228l-278 219v-635h-44v697h38l290 -231l273 225h44v-691h-40z" />
<glyph unicode="N" horiz-adv-x="630" d="M540 3v407l-450 238v-645h-36v693h36l448 -241v235h40v-687h-38z" />
<glyph unicode="O" horiz-adv-x="819" d="M409 -9q-147 0 -253 106.5t-106 254.5q0 146 105 254t253 108q149 0 255 -107.5t106 -255.5q0 -147 -106 -253.5t-254 -106.5zM409 678q-134 0 -227.5 -96.5t-93.5 -230.5q0 -132 93.5 -228.5t227.5 -96.5q131 0 226.5 96.5t95.5 229.5q0 67 -23 123t-72 106 q-95 97 -227 97z" />
<glyph unicode="P" horiz-adv-x="622" d="M107 428v-427h-34v699h376q61 0 103.5 -38t42.5 -98q0 -65 -41.5 -100.5t-108.5 -35.5h-338zM435 660h-328v-195l330 -1q48 0 82.5 24.5t34.5 72.5t-35 73.5t-84 25.5z" />
<glyph unicode="Q" horiz-adv-x="833" d="M680 103l94 -102h-54l-70 73q-102 -87 -233 -87q-150 0 -256.5 107t-106.5 257q0 149 107 255t256 106t255.5 -106t106.5 -256q0 -140 -99 -247zM417 677q-135 0 -231 -96.5t-96 -230.5q0 -132 96 -229t230 -97q131 0 228 96t97 229q0 136 -95 232t-229 96z" />
<glyph unicode="R" horiz-adv-x="637" d="M447 430l138 -427h-40l-142 423h-307v-425h-42v705l375 -1q72 0 114 -33q46 -37 46 -106q0 -57 -44 -94q-39 -33 -98 -42zM424 666h-326v-195h305q145 0 145 94q0 101 -124 101z" />
<glyph unicode="S" horiz-adv-x="630" d="M336 3h-280v32l75 -2l74 -1q148 0 224 35q110 52 110 180q0 43 -31 92q-49 78 -173 88l-191 10q-90 21 -90 128q0 54 37.5 94.5t92.5 40.5h348v-36h-342q-42 0 -69.5 -27.5t-27.5 -69.5q0 -75 68 -93q12 -3 43.5 -5t84.5 -2q289 0 289 -224q0 -98 -72 -169t-170 -71z" />
<glyph unicode="T" horiz-adv-x="622" d="M329 664v-663h-36v663h-241v32h518v-32h-241z" />
<glyph unicode="U" d="M318 3q-112 0 -189 78t-77 189v432h38v-423q0 -106 61.5 -171t166.5 -65q106 0 167 79q55 72 55 181v399h38v-403q0 -123 -67 -206q-72 -90 -193 -90z" />
<glyph unicode="V" horiz-adv-x="745" d="M373 -13l-318 715h44l275 -619l276 617h45z" />
<glyph unicode="W" horiz-adv-x="910" d="M649 -18l-198 386l-198 -383l-196 717h45l164 -607l185 371l190 -363l157 599h39z" />
<glyph unicode="X" horiz-adv-x="613" d="M525 1l-210 382l-220 -380h-39l238 416l-156 281h48l132 -238l138 238h42l-159 -273l228 -426h-42z" />
<glyph unicode="Y" horiz-adv-x="580" d="M308 421v-418h-36v418l-223 279h43l198 -247l202 249h43z" />
<glyph unicode="Z" horiz-adv-x="633" d="M100 39h480v-36h-530v34l479 634h-477v37h530v-35z" />
<glyph unicode="[" horiz-adv-x="291" d="M52 -198v900h181v-42h-116v-814h122v-44h-187z" />
<glyph unicode="\" horiz-adv-x="462" d="M361 1l-304 699h49l304 -699h-49z" />
<glyph unicode="]" horiz-adv-x="289" d="M48 -198v44h121v814h-117v42h181v-900h-185z" />
<glyph unicode="^" horiz-adv-x="318" d="M226 621l-60 67l-61 -67h-51l82 79h67l67 -79h-44z" />
<glyph unicode="_" horiz-adv-x="624" d="M-4 -146v7h641v-7h-641z" />
<glyph unicode="`" horiz-adv-x="165" d="M95 627l-56 75h35l52 -75h-31z" />
<glyph unicode="a" horiz-adv-x="522" d="M204 1q-65 0 -107.5 52t-42.5 120q0 92 85 131q61 26 175 26l56 -1l50 -1q0 44 -27.5 75.5t-71.5 31.5h-225v40l206 1q67 0 112.5 -38t45.5 -105v-332h-256zM420 286h-194q-53 0 -93.5 -37t-40.5 -89q0 -61 41 -93q36 -30 99 -30h188v249z" />
<glyph unicode="b" horiz-adv-x="520" d="M224 3h-155v719h40v-245q170 0 250 -33q123 -51 123 -203q0 -111 -74 -176q-70 -62 -184 -62zM230 435h-121v-396l110 1q96 0 158.5 54.5t62.5 148.5q0 88 -60.5 140t-149.5 52z" />
<glyph unicode="c" horiz-adv-x="517" d="M313 3q-113 0 -186 61.5t-73 173.5q0 101 74 169t176 68h158v-38l-55 1l-56 1q-108 0 -176 -43q-81 -51 -81 -155q0 -99 61 -147q47 -38 142 -49q5 0 60 -2t105 -2v-38h-149z" />
<glyph unicode="d" horiz-adv-x="513" d="M288 1q-114 0 -184 61q-74 65 -74 177q0 149 124 203q78 33 250 33v247h40v-721h-156zM404 435h-124q-89 0 -149 -53t-60 -141q0 -95 64 -152q61 -52 159 -52h110v398z" />
<glyph unicode="e" horiz-adv-x="508" d="M304 3q-113 0 -185 60q-75 63 -75 175q0 101 74 169t176 68h160l-1 -39l-62 1l-64 1q-78 0 -132 -22.5t-82 -87.5h341v-42h-361l-5 -44q0 -98 60 -149q48 -39 141 -48q4 0 59 -2t106 -2v-38h-150z" />
<glyph unicode="f" horiz-adv-x="318" d="M121 435v-432h-43v523q0 93 61 144q55 46 152 46l-1 -37q-98 0 -138 -52q-33 -43 -33 -148h172v-44h-170z" />
<glyph unicode="g" horiz-adv-x="519" d="M246 -278q-83 0 -148 60q-31 29 -48.5 66t-17.5 78l43 1q0 -69 49 -118t120 -49q100 0 140 76q29 55 29 167q-178 0 -255 34q-122 53 -122 210q0 98 74 164t174 66h170v-544q0 -86 -60.5 -148.5t-147.5 -62.5zM412 435h-118q-88 0 -149 -49q-65 -53 -65 -139 q0 -95 60.5 -149.5t157.5 -54.5h114v392z" />
<glyph unicode="h" horiz-adv-x="520" d="M408 5v318q0 114 -139 114h-189v-434h-46v719h44v-242l65 1l64 2q243 0 243 -150v-328h-42z" />
<glyph unicode="i" horiz-adv-x="203" d="M106 660q-9 0 -17 7q-6 8 -6 16q0 9 6.5 17.5t16.5 8.5q24 0 24 -25q0 -24 -24 -24zM85 3v462h40v-462h-40z" />
<glyph unicode="j" horiz-adv-x="203" d="M101 667q-25 0 -25 25t25 25q23 0 23 -27q0 -9 -6.5 -15t-16.5 -8zM-79 -284q-81 0 -146.5 58.5t-65.5 140.5h36q0 -67 54 -114t121 -47q72 0 118 54t46 127v544h39v-544q0 -91 -56 -155t-146 -64z" />
<glyph unicode="k" horiz-adv-x="488" d="M418 3l-229 326l-99 -48v-278h-38v717h38v-394l295 151h70l-233 -131l239 -343h-43z" />
<glyph unicode="l" horiz-adv-x="203" d="M84 3v717h40v-717h-40z" />
<glyph unicode="m" horiz-adv-x="673" d="M599 3l-1 297q0 54 -27 96q-30 45 -84 45q-56 0 -90.5 -39.5t-34.5 -98.5v-300h-39l1 307q0 51 -37 91t-89 40q-51 0 -82.5 -43.5t-31.5 -96.5v-298l-42 -2v304q0 66 44 120.5t110 54.5q99 0 148 -85q46 88 139 88q60 0 108 -45t48 -105v-330h-40z" />
<glyph unicode="n" horiz-adv-x="490" d="M418 1v284q0 62 -48.5 110t-111.5 48q-105 0 -148 -85q-32 -64 -32 -184l3 -93l3 -78h-40v280q0 84 67 144q64 56 151 56q74 0 135 -56.5t61 -131.5v-294h-40z" />
<glyph unicode="o" horiz-adv-x="561" d="M278 -3q-100 0 -171 71t-71 171t71 172t171 72q99 0 171 -72.5t72 -171.5t-71.5 -170.5t-171.5 -71.5zM278 443q-83 0 -142.5 -60.5t-59.5 -143.5q0 -84 58.5 -144.5t143.5 -60.5q83 0 142.5 60.5t59.5 144.5q0 81 -59.5 142.5t-142.5 61.5z" />
<glyph unicode="p" horiz-adv-x="498" d="M99 5v-279h-39v751h155q113 0 185.5 -62t72.5 -174q0 -150 -123 -203q-77 -33 -251 -33zM210 443h-111v-400h121q90 0 150.5 54.5t60.5 141.5q0 92 -63.5 148t-157.5 56z" />
<glyph unicode="q" horiz-adv-x="508" d="M402 -274v277q-169 0 -246 34q-120 51 -120 199q0 110 69.5 175.5t180.5 65.5h156v-751h-40zM400 435l-110 1q-97 0 -154.5 -57t-57.5 -152q0 -86 64 -138q59 -48 148 -48h110v394z" />
<glyph unicode="r" horiz-adv-x="316" d="M113 3l-39 2v336q0 60 45 99t106 39h60v-38q-85 0 -121 -18q-51 -27 -51 -105v-315z" />
<glyph unicode="s" horiz-adv-x="509" d="M300 1h-246v40h252q49 0 86 38t37 87q0 86 -69 112q-37 13 -141 13q-77 0 -109 13q-52 21 -52 86q0 38 31.5 63.5t70.5 25.5h263v-38h-265q-25 0 -44.5 -16t-19.5 -40q0 -52 91 -52l42 1l34 2q86 0 143 -36q65 -42 65 -128q0 -70 -50 -120.5t-119 -50.5z" />
<glyph unicode="t" horiz-adv-x="308" d="M92 432v-273q0 -89 41 -111q26 -13 122 -13v-34h-79q-126 0 -126 164v555h42v-247h167v-41h-167z" />
<glyph unicode="u" horiz-adv-x="517" d="M276 -7q-90 0 -151 58q-29 28 -45 65.5t-16 82.5v280h39v-279q0 -72 49.5 -122t121.5 -50q59 0 109.5 48t50.5 108v295h38l1 -292q0 -76 -60 -135t-137 -59z" />
<glyph unicode="v" horiz-adv-x="567" d="M292 -13l-234 490h44l188 -398l183 398h46z" />
<glyph unicode="w" horiz-adv-x="707" d="M499 -11q-90 0 -141 84q-46 -82 -140 -82q-77 0 -121 54q-39 48 -39 129v303h43v-299q0 -59 27 -101q31 -49 88 -49t89 41.5t32 99.5v306h42v-297q0 -64 28 -104q32 -46 94 -46q44 0 81.5 36.5t37.5 82.5v328h45v-323q0 -65 -50.5 -114t-115.5 -49z" />
<glyph unicode="x" horiz-adv-x="508" d="M412 1l-152 248l-156 -248h-42l176 282l-123 196h43l102 -161l98 161h44l-121 -196l174 -282h-43z" />
<glyph unicode="y" horiz-adv-x="508" d="M258 -280q-91 0 -144 52q-28 27 -43 62t-15 79h40q0 -63 47 -113q44 -46 111 -46q102 0 138 80q24 53 24 169l-75 -3l-79 -2q-96 0 -145 28q-63 38 -63 133v309h40v-321q0 -44 30 -75t76 -31h216v426h40v-544q0 -82 -58.5 -142.5t-139.5 -60.5z" />
<glyph unicode="z" horiz-adv-x="517" d="M58 1v44l359 394h-359v38h411v-42l-358 -394h359v-40h-412z" />
<glyph unicode="{" horiz-adv-x="310" d="M233 -199q-57 0 -85 39.5t-28 126.5l3 80l4 67q0 126 -69 141q74 24 74 165l-3 66l-2 56q0 79 22 114q27 45 102 45q-32 -12 -52 -48q-16 -32 -16 -69v-205q0 -95 -92 -125q94 -12 94 -153v-41q-3 -24 -4 -36l-4 -65q0 -129 80 -156z" />
<glyph unicode="|" horiz-adv-x="140" d="M46 -200v900h53v-900h-53z" />
<glyph unicode="}" horiz-adv-x="318" d="M59 -195q79 27 79 154v43q-3 23 -4 35l-4 69q0 128 96 151q-99 18 -99 157v24q0 9 4 51l4 68q0 116 -72 145h8q123 0 123 -188q0 -7 -2 -36t-2 -51l-3 -76q0 -32 20.5 -57.5t52.5 -37.5q-75 -14 -75 -159l3 -78l4 -61q0 -155 -96 -155z" />
<glyph unicode="~" horiz-adv-x="295" d="M200 644l-82 22q-21 0 -24 -22h-39q1 32 16 44q12 12 43 12q17 0 75 -26q26 7 29 26h31v-7q0 -23 -14 -34q-8 -7 -35 -15z" />
<glyph unicode="&#xa1;" horiz-adv-x="151" d="M75 378l-13 5l-6 13l6 15q6 5 13 5q21 0 21 -20q0 -10 -21 -18zM54 -272v512h42v-512h-42z" />
<glyph unicode="&#xa2;" horiz-adv-x="568" d="M323 1v-42h-38v49q-108 25 -169.5 107t-61.5 194q0 106 64.5 186.5t166.5 104.5v52h38v-44h188v-39h-186v-530h188v-38h-190zM285 559q-84 -22 -139.5 -95t-55.5 -159q0 -94 52 -161.5t143 -95.5v511z" />
<glyph unicode="&#xa3;" horiz-adv-x="567" d="M92 420v-391h423v-28h-461l-1 479q0 90 70 154t162 64q79 0 139 -45t84 -124l-36 1q-18 59 -72 98q-53 34 -118 34q-85 0 -139 -63q-25 -30 -40 -66.5t-15 -79.5h429v-33h-425z" />
<glyph unicode="&#xa4;" horiz-adv-x="620" d="M431 334l-14 -32h-332q16 -166 176 -227q101 -38 311 -38v-36h-183q-143 0 -244 102.5t-101 248.5q0 156 109 255t266 99h153v-40q-106 0 -182.5 -9t-128.5 -29q-154 -60 -175 -230h372l-13 -32h-361l-1 -23v-9h348z" />
<glyph unicode="&#xa5;" horiz-adv-x="635" d="M404 420h118v-40h-143l-42 -71v-46h185v-41h-185v-219h-40v219h-186v41h186v46l-41 71h-145v40h121l-168 286h44l211 -354l206 354h45z" />
<glyph unicode="&#xa7;" horiz-adv-x="557" d="M392 60q62 -47 62 -116q0 -66 -52.5 -109t-121.5 -43q-76 0 -129 52t-53 129l1 3h56l-2 -21q-1 -5 -1 -10q0 -42 38 -71q39 -30 90 -30q45 0 77.5 27.5t32.5 72.5q0 68 -87 128l-160 97q-87 62 -87 142q0 53 30 91q20 23 76 60q-51 48 -51 112q0 63 52 103.5t117 40.5 q78 0 128 -51.5t50 -127.5h-50q0 54 -36 91t-89 37q-46 0 -82 -25t-36 -70q0 -62 89 -120l164 -99q89 -63 89 -136q0 -50 -36 -92q-21 -25 -79 -65zM190 431q-87 -48 -87 -108q0 -59 61 -101l201 -132q91 52 91 115q0 54 -56 91z" />
<glyph unicode="&#xa8;" horiz-adv-x="285" d="M204 638q-33 0 -33 33q0 12 9.5 21.5t22.5 9.5q33 0 33 -32t-32 -32zM85 638q-31 0 -31 32q0 11 9 21t23 11q12 0 21.5 -9t10.5 -23q0 -12 -9.5 -21t-23.5 -11z" />
<glyph unicode="&#xa9;" horiz-adv-x="806" d="M407 3q-144 0 -247 103t-103 247q0 143 102.5 247t247.5 104t246 -104q51 -52 77 -113.5t26 -134.5q0 -143 -103 -246t-246 -103zM407 671q-132 0 -225.5 -93.5t-93.5 -226.5q0 -130 93 -224t225 -94q131 0 225.5 93.5t94.5 224.5q0 132 -94 226t-225 94zM395 135 q-83 0 -133 69q-41 61 -41 150q0 86 49.5 152.5t136.5 66.5q63 0 108.5 -34.5t54.5 -97.5h-35q0 43 -40.5 71.5t-85.5 28.5q-74 0 -115 -60q-34 -53 -34 -130q0 -78 29 -126q37 -61 108 -61q51 0 90.5 31.5t51.5 82.5l37 1q-13 -65 -62.5 -104.5t-118.5 -39.5z" />
<glyph unicode="&#xaa;" horiz-adv-x="318" d="M135 475q-31 0 -53 25q-20 26 -20 58q0 59 69 74q8 2 41 3.5t73 1.5q0 59 -87 59l-37 -2l-37 -2v20l99 -1q29 0 54 -21t25 -51v-164h-127zM63 433v18h200v-18h-200zM246 618l-97 -1q-27 0 -48 -18.5t-21 -45.5q0 -62 69 -62h97v127z" />
<glyph unicode="&#xab;" horiz-adv-x="348" d="M174 231l119 -184h-41l-117 186l117 198h45zM96 231l118 -184h-41l-117 186l117 198h45z" />
<glyph unicode="&#xac;" horiz-adv-x="802" d="M701 3v247h-649v48h700v-295h-51z" />
<glyph unicode="&#xad;" horiz-adv-x="297" d="M52 332v37h191v-37h-191z" />
<glyph unicode="&#xae;" horiz-adv-x="804" d="M407 3q-144 0 -246.5 102.5t-102.5 248.5q0 143 102.5 246.5t246.5 103.5t247.5 -102.5t103.5 -247.5q0 -144 -103 -247.5t-248 -103.5zM407 671q-132 0 -225.5 -93.5t-93.5 -226.5q0 -130 93 -224t225 -94q131 0 225.5 93.5t94.5 224.5q0 132 -94 226t-225 94zM531 139 q-5 15 -8 34t-3 49q0 55 -12 76q-19 34 -75 34h-129v-191h-36v417h152q152 0 152 -108q0 -72 -73 -105q37 -18 49 -51q7 -23 7 -74q0 -54 17 -81h-41zM426 526h-122v-166h122q112 0 112 83t-112 83z" />
<glyph unicode="&#xb0;" horiz-adv-x="390" d="M195 380q-58 0 -101 42t-43 102q0 58 42.5 101.5t101.5 43.5q57 0 100.5 -43t43.5 -102t-42.5 -101.5t-101.5 -42.5zM194 635q-45 0 -77.5 -32.5t-32.5 -77.5q0 -44 33 -79q34 -32 79 -32t77.5 32.5t32.5 77.5t-33.5 78t-78.5 33z" />
<glyph unicode="&#xb1;" horiz-adv-x="480" d="M266 292v-172h-40v172h-178v44h178v174h42v-174h168v-44h-170zM48 1v32h388v-32h-388z" />
<glyph unicode="&#xb2;" d="M86 225q0 -110 98 -158q74 -34 208 -34l101 3l83 3v-36h-272q-104 0 -178 61q-78 65 -78 167q0 158 129 203q13 5 238 29q129 14 129 98q0 99 -153 99h-291v38h291q191 0 191 -133q0 -98 -71 -126q-37 -14 -156 -14q-269 0 -269 -200z" />
<glyph unicode="&#xb3;" horiz-adv-x="576" d="M304 5h-252v35l73 -2l80 -2q129 0 193 35q89 47 89 166q0 111 -87 158q-65 33 -191 33l-83 -2l-72 -2v37h273q121 0 121 98q0 109 -223 109q-14 0 -52.5 -2t-50.5 -2l-72 -4v36h296q56 0 97 -40t41 -97q0 -87 -80 -126q53 -30 86 -83q16 -26 24 -53t8 -59 q0 -94 -63.5 -163.5t-154.5 -69.5z" />
<glyph unicode="&#xb4;" horiz-adv-x="189" d="M86 627h-31l50 75h35z" />
<glyph unicode="&#xb5;" horiz-adv-x="628" d="M449 -20q-36 0 -63 36q-12 15 -19.5 33.5t-7.5 37.5q-41 -48 -69 -70q-44 -33 -90 -33q-71 0 -122 67l1 -44q0 -28 18 -84t18 -86q0 -21 -12 -41q-15 -20 -37 -20q-46 0 -46 72q0 27 16 76.5t16 73.5v509h84v-352q0 -42 26 -77t68 -35t88 33t46 77v354h78v-398 q0 -32 16.5 -60t48.5 -28q24 0 38 26l17 48h14q-28 -115 -127 -115z" />
<glyph unicode="&#xb6;" horiz-adv-x="681" d="M550 721v-55h-34v-837h-60v837h-147v-837h-59v496q-74 12 -117 65t-43 128q0 97 65 152q60 51 160 51h235z" />
<glyph unicode="&#xb7;" horiz-adv-x="167" d="M87 292q-28 0 -28 29q0 30 29 30t29 -29q0 -30 -30 -30z" />
<glyph unicode="&#x2219;" horiz-adv-x="167" d="M87 292q-28 0 -28 29q0 30 29 30t29 -29q0 -30 -30 -30z" />
<glyph unicode="&#xb9;" horiz-adv-x="147" d="M58 7v691h40v-691h-40z" />
<glyph unicode="&#xba;" horiz-adv-x="345" d="M172 472q-50 0 -85 35t-35 86q0 49 36 84t84 35t85 -35.5t37 -84.5q0 -50 -36 -85t-86 -35zM54 435v16h237v-16h-237zM172 694q-42 0 -73 -31t-31 -73q0 -43 29.5 -73t73.5 -30q42 0 72.5 30.5t30.5 72.5q0 41 -30.5 72.5t-71.5 31.5z" />
<glyph unicode="&#xbb;" horiz-adv-x="356" d="M180 47h-43l118 182l-120 200h45l116 -198zM99 47h-41l119 182l-123 200h45l117 -198z" />
<glyph unicode="&#xbf;" horiz-adv-x="563" d="M309 378q-20 3 -20 20q0 6 6 15l14 6l13 -7l6 -14q0 -12 -7 -15l-6 -3q-5 -1 -6 -2zM204 -272q-56 0 -103 38.5t-47 95.5q0 89 83 120q52 19 158 19v235h38v-273l-42 1l-41 1q-152 0 -152 -103q0 -42 36 -69t80 -27h305v-38h-315z" />
<glyph unicode="&#xc0;" horiz-adv-x="630" d="M542 1v431h-452v-429h-36v433q0 121 73 202t191 81q109 0 186 -78q38 -39 57 -84.5t19 -102.5v-453h-38zM319 686q-86 0 -154 -66q-34 -33 -51.5 -70t-17.5 -81l446 1q0 85 -68.5 150.5t-154.5 65.5zM336 763l-56 74h35l52 -74h-31z" />
<glyph unicode="&#xc1;" d="M542 1v431h-452v-429h-36v433q0 121 73 202t191 81q109 0 186 -78q38 -39 57 -84.5t19 -102.5v-453h-38zM319 686q-86 0 -154 -66q-34 -33 -51.5 -70t-17.5 -81l446 1q0 85 -68.5 150.5t-154.5 65.5zM313 765h-31l52 74h35z" />
<glyph unicode="&#xc2;" horiz-adv-x="628" d="M542 1v431h-452v-429h-36v433q0 121 73 202t191 81q109 0 186 -78q38 -39 57 -84.5t19 -102.5v-453h-38zM319 686q-86 0 -154 -66q-34 -33 -51.5 -70t-17.5 -81l446 1q0 85 -68.5 150.5t-154.5 65.5zM392 765l-60 67l-61 -67h-50l82 78h66l68 -78h-45z" />
<glyph unicode="&#xc3;" d="M542 0v431h-452v-429h-36v433q0 121 73 202t191 81q109 0 186 -78q38 -39 57 -84.5t19 -102.5v-453h-38zM319 685q-86 0 -154 -66q-34 -33 -51.5 -70t-17.5 -81l446 1q0 85 -68.5 150.5t-154.5 65.5zM372 765q-13 0 -40 10q-13 5 -22 7.5t-20 3.5q-16 0 -22 -20h-39 q0 20 14.5 39t35.5 19q31 0 86 -28q24 8 27 28h33v-6q0 -20 -16.5 -36.5t-36.5 -16.5z" />
<glyph unicode="&#xc4;" horiz-adv-x="624" d="M543 1v431h-452v-429h-36v433q0 121 73 202t191 81q109 0 186 -78q38 -39 57 -84.5t19 -102.5v-453h-38zM320 686q-86 0 -154 -66q-34 -33 -51.5 -70t-17.5 -81l446 1q0 85 -68.5 150.5t-154.5 65.5zM391 763q-11 0 -23 9q-9 9 -10 23q0 12 10 21.5t23 10.5q32 0 32 -32 q0 -12 -9.5 -22t-22.5 -10zM272 763q-11 0 -21 9t-10 22q0 32 32 32q11 0 21.5 -8.5t11.5 -22.5q0 -12 -9.5 -22t-24.5 -10z" />
<glyph unicode="&#xc5;" horiz-adv-x="630" d="M542 1v431h-452v-429h-36v433q0 121 73 202t191 81q109 0 186 -78q38 -39 57 -84.5t19 -102.5v-453h-38zM319 686q-86 0 -154 -66q-34 -33 -51.5 -70t-17.5 -81l446 1q0 85 -68.5 150.5t-154.5 65.5zM316 763q-18 0 -34 15t-16 37q0 17 15 33t36 16q20 0 35 -15t15 -35 q0 -21 -15 -36t-36 -15zM317 838q-13 -3 -18 -7l-4 -9l-1 -9q0 -23 23 -23q8 0 15.5 7t8.5 17v4l-1 3q-3 13 -23 17z" />
<glyph unicode="&#xc6;" horiz-adv-x="1121" d="M540 3v421h-448v-421h-40v436q0 117 73.5 200t190.5 83q141 0 222 -123l2 109h530v-42h-482v-199h482v-45h-482v-381h482v-38h-530zM317 684q-84 0 -153.5 -66.5t-69.5 -149.5h444q0 81 -69 148.5t-152 67.5z" />
<glyph unicode="&#xc7;" horiz-adv-x="628" d="M421 3v-78h31q115 0 115 -80q0 -32 -27 -55q-13 -11 -28 -16.5t-33 -5.5h-69v6h18h14h11q41 0 52 5q52 12 52 66q0 51 -52 66q-26 6 -95 6v86q-149 0 -250.5 99t-101.5 250q0 155 112 257q108 97 265 97h151v-40h-161q-127 0 -225.5 -95t-98.5 -220q0 -206 157 -273 q96 -41 330 -41v-34h-167z" />
<glyph unicode="&#xc8;" horiz-adv-x="649" d="M65 1v707h519v-42h-473v-199h473v-45h-473v-381h473v-40h-519zM344 765l-56 74h35l52 -74h-31z" />
<glyph unicode="&#xc9;" horiz-adv-x="618" d="M65 1v707h519v-42h-473v-199h473v-45h-473v-381h473v-40h-519zM331 765h-31l51 74h34z" />
<glyph unicode="&#xca;" horiz-adv-x="637" d="M65 1v707h519v-42h-473v-199h473v-45h-473v-381h473v-40h-519zM390 765l-60 67l-61 -67h-50l82 78h66l68 -78h-45z" />
<glyph unicode="&#xcb;" horiz-adv-x="649" d="M65 1v707h519v-42h-473v-199h473v-45h-473v-381h473v-40h-519zM399 765q-11 0 -23 9q-9 9 -10 23q0 12 9.5 21.5t22.5 9.5q33 0 33 -31q0 -32 -32 -32zM280 765q-31 0 -31 31q0 32 32 32q11 0 21 -8.5t11 -22.5q0 -12 -9.5 -22t-23.5 -10z" />
<glyph unicode="&#xcc;" horiz-adv-x="207" d="M88 3v695h38v-695h-38zM119 763l-54 74h34l51 -74h-31z" />
<glyph unicode="&#xcd;" horiz-adv-x="207" d="M88 3v695h38v-695h-38zM104 763h-31l52 74h35z" />
<glyph unicode="&#xce;" horiz-adv-x="207" d="M88 3v695h38v-695h-38zM165 765l-61 67l-60 -67h-51l82 78h66l68 -78h-44z" />
<glyph unicode="&#xcf;" horiz-adv-x="207" d="M87 2v695h38v-695h-38zM160 765q-13 0 -23 9t-11 23q0 12 10 21t23 10q32 0 32 -31q0 -32 -31 -32zM40 765q-31 0 -31 31q0 32 32 32q11 0 21 -8.5t11 -22.5q0 -12 -9.5 -22t-23.5 -10z" />
<glyph unicode="&#xd1;" horiz-adv-x="624" d="M540 2v407l-450 238v-645h-36v693h36l448 -241v235h40v-687h-38zM380 765q-13 0 -40 10q-13 5 -22 7.5t-20 3.5q-16 0 -22 -20h-39q0 20 14.5 39t35.5 19q31 0 86 -28q24 8 27 28h32v-6q0 -20 -16 -36.5t-36 -16.5z" />
<glyph unicode="&#xd2;" horiz-adv-x="819" d="M409 -9q-147 0 -253 106.5t-106 254.5q0 146 105 254t253 108q149 0 255 -107.5t106 -255.5q0 -147 -106 -253.5t-254 -106.5zM409 678q-134 0 -227.5 -96.5t-93.5 -230.5q0 -132 93.5 -228.5t227.5 -96.5q131 0 226.5 96.5t95.5 229.5q0 67 -23 123t-72 106 q-95 97 -227 97zM412 765l-55 74h35l51 -74h-31z" />
<glyph unicode="&#xd3;" horiz-adv-x="819" d="M409 -9q-147 0 -253 106.5t-106 254.5q0 146 105 254t253 108q149 0 255 -107.5t106 -255.5q0 -147 -106 -253.5t-254 -106.5zM409 678q-134 0 -227.5 -96.5t-93.5 -230.5q0 -132 93.5 -228.5t227.5 -96.5q131 0 226.5 96.5t95.5 229.5q0 67 -23 123t-72 106 q-95 97 -227 97zM385 765h-32l51 74h35z" />
<glyph unicode="&#xd4;" horiz-adv-x="819" d="M409 -9q-147 0 -253 106.5t-106 254.5q0 146 105 254t253 108q149 0 255 -107.5t106 -255.5q0 -147 -106 -253.5t-254 -106.5zM409 678q-134 0 -227.5 -96.5t-93.5 -230.5q0 -132 93.5 -228.5t227.5 -96.5q131 0 226.5 96.5t95.5 229.5q0 67 -23 123t-72 106 q-95 97 -227 97zM454 765l-61 67l-60 -67h-51l82 78h66l68 -78h-44z" />
<glyph unicode="&#xd5;" horiz-adv-x="829" d="M451 765q-13 0 -38.5 9.5t-44.5 11.5q-17 0 -21 -20h-38q0 22 13.5 40.5t34.5 18.5q18 0 44 -10l42 -18q25 6 28 27h33v-6q0 -20 -16.5 -36.5t-36.5 -16.5zM409 -12q-147 0 -253 106.5t-106 255.5q0 148 105 255t254 107t255 -107.5t106 -256.5t-105.5 -254.5 t-255.5 -105.5zM409 676q-134 0 -227.5 -96.5t-93.5 -230.5q0 -132 93.5 -229t227.5 -97q131 0 226.5 96.5t95.5 228.5q0 135 -94.5 231.5t-227.5 96.5z" />
<glyph unicode="&#xd6;" horiz-adv-x="821" d="M409 -10q-147 0 -253 106.5t-106 254.5q0 146 105 254t253 108q149 0 255 -107.5t106 -255.5q0 -147 -106 -253.5t-254 -106.5zM409 677q-134 0 -227.5 -96.5t-93.5 -230.5q0 -132 93.5 -228.5t227.5 -96.5q131 0 226.5 96.5t95.5 229.5q0 67 -23 123t-72 106 q-95 97 -227 97zM473 763q-11 0 -23 9q-9 9 -10 23q0 12 10 22q10 8 24 10q32 0 32 -32q0 -29 -33 -32zM355 762q-11 0 -21 9t-10 22q0 32 31 32q11 0 21.5 -8.5t12.5 -22.5q0 -12 -9.5 -22t-24.5 -10z" />
<glyph unicode="&#xd8;" horiz-adv-x="819" d="M413 -9q-69 0 -124 23l-24 -54l-33 19l22 47q-90 45 -147 133t-57 187q0 151 104.5 259.5t254.5 108.5q73 0 136 -25l24 54l31 -19l-21 -53q87 -45 139 -133q26 -45 39 -89.5t13 -95.5q0 -73 -26 -135t-81 -118q-107 -109 -250 -109zM563 637l-262 -593q52 -19 114 -19 q129 0 222.5 99.5t93.5 227.5q0 88 -45.5 165t-122.5 120zM410 678q-134 0 -228 -97t-94 -231q0 -94 48 -173t133 -119l259 596q-60 24 -118 24z" />
<glyph unicode="&#xd9;" horiz-adv-x="622" d="M318 3q-112 0 -189 78t-77 189v432h38v-423q0 -106 61.5 -171t166.5 -65q106 0 167 79q55 72 55 181v399h38v-403q0 -123 -67 -206q-72 -90 -193 -90zM330 763l-56 74h35l52 -74h-31z" />
<glyph unicode="&#xda;" horiz-adv-x="622" d="M318 3q-112 0 -189 78t-77 189v432h38v-423q0 -106 61.5 -171t166.5 -65q106 0 167 79q55 72 55 181v399h38v-403q0 -123 -67 -206q-72 -90 -193 -90zM315 763h-31l52 74h35z" />
<glyph unicode="&#xdb;" horiz-adv-x="622" d="M318 3q-112 0 -189 78t-77 189v432h38v-423q0 -106 61.5 -171t166.5 -65q106 0 167 79q55 72 55 181v399h38v-403q0 -123 -67 -206q-72 -90 -193 -90zM390 766l-60 68l-61 -68h-50l82 79h66l68 -79h-45z" />
<glyph unicode="&#xdc;" horiz-adv-x="624" d="M319 2q-112 0 -189 78t-77 189v432h38v-423q0 -106 61.5 -171t166.5 -65q106 0 167 79q55 72 55 181v399h38v-403q0 -123 -67 -206q-72 -90 -193 -90zM397 763q-11 0 -23 9q-9 9 -10 23q0 12 9.5 21t22.5 10q33 0 33 -31q0 -29 -32 -32zM278 762q-11 0 -21 9t-10 22 q0 32 32 32q11 0 21.5 -8.5t11.5 -22.5q0 -12 -9.5 -22t-24.5 -10z" />
<glyph unicode="&#xdd;" horiz-adv-x="580" d="M529 774h-31l50 75h35zM308 421v-418h-36v418l-223 279h43l198 -247l202 249h43z" />
<glyph unicode="&#xdf;" horiz-adv-x="515" d="M250 3h-118l-1 38q137 0 202 30q93 44 93 169q0 116 -94 164q-66 33 -196 33v40l67 -2q144 0 144 82q0 44 -36.5 80t-81.5 36q-135 0 -135 -189v-483h-40v527q0 72 50 128t121 56q59 0 110 -44.5t51 -104.5q0 -44 -17 -67q-13 -18 -53 -45q147 -59 147 -214 q0 -93 -61 -163.5t-152 -70.5z" />
<glyph unicode="&#xe0;" horiz-adv-x="509" d="M204 1q-65 0 -107.5 52t-42.5 120q0 92 85 131q61 26 175 26l56 -1l50 -1q0 44 -27.5 75.5t-71.5 31.5h-225v40l206 1q67 0 112.5 -38t45.5 -105v-332h-256zM420 286h-194q-53 0 -93.5 -37t-40.5 -89q0 -61 41 -93q36 -30 99 -30h188v249zM286 553l-56 74h35l52 -74h-31z " />
<glyph unicode="&#xe1;" horiz-adv-x="513" d="M204 1q-65 0 -107.5 52t-42.5 120q0 92 85 131q61 26 175 26l56 -1l50 -1q0 44 -27.5 75.5t-71.5 31.5h-225v40l206 1q67 0 112.5 -38t45.5 -105v-332h-256zM420 286h-194q-53 0 -93.5 -37t-40.5 -89q0 -61 41 -93q36 -30 99 -30h188v249zM267 549h-31l52 74h35z" />
<glyph unicode="&#xe2;" horiz-adv-x="517" d="M345 553l-61 66l-61 -66h-50l82 77h66l68 -77h-44zM204 3q-65 0 -107.5 52t-42.5 120q0 92 86 131q61 26 177 26l56 -1l47 -1q0 44 -27.5 75.5t-71.5 31.5h-225v40l206 1q67 0 112.5 -38t45.5 -105v-332h-256zM420 288h-194q-53 0 -93.5 -37t-40.5 -89q0 -61 41 -93 q36 -30 99 -30h188v249z" />
<glyph unicode="&#xe3;" horiz-adv-x="509" d="M203 0q-65 0 -107.5 52t-42.5 120q0 92 85 131q61 26 175 26l56 -1l50 -1q0 44 -27.5 75.5t-71.5 31.5h-225v40l206 1q67 0 112.5 -38t45.5 -105v-332h-256zM419 285h-194q-53 0 -93.5 -37t-40.5 -89q0 -61 41 -93q36 -30 99 -30h188v249zM323 549l-83 20q-15 0 -21 -18 h-39q0 22 14 39.5t35 17.5q28 0 85 -27q23 6 29 27h32l1 -8q0 -39 -53 -51z" />
<glyph unicode="&#xe4;" horiz-adv-x="508" d="M204 1q-65 0 -107.5 52t-42.5 120q0 92 85 131q61 26 175 26l56 -1l50 -1q0 44 -27.5 75.5t-71.5 31.5h-225v40l206 1q67 0 112.5 -38t45.5 -105v-332h-256zM420 286h-194q-53 0 -93.5 -37t-40.5 -89q0 -61 41 -93q36 -30 99 -30h188v249zM332 555q-33 0 -33 32 q0 12 9.5 21t23.5 9q31 0 31 -31t-31 -31zM214 555q-32 0 -32 31q0 32 32 32q12 0 22 -9t11 -23q0 -12 -9.5 -21.5t-23.5 -9.5z" />
<glyph unicode="&#xe5;" horiz-adv-x="515" d="M204 0q-65 0 -107.5 52t-42.5 120q0 92 85 131q61 26 175 26l56 -1l50 -1q0 44 -27.5 75.5t-71.5 31.5h-225v40l206 1q67 0 112.5 -38t45.5 -105v-332h-256zM420 285h-194q-53 0 -93.5 -37t-40.5 -89q0 -61 41 -93q36 -30 99 -30h188v249zM286 558q-21 0 -36 15t-15 37 q0 17 15 33t36 16t36 -15t15 -35q0 -21 -15 -36t-36 -15zM286 632l-7 -1q-12 -3 -18 -23q7 -23 26 -23q23 0 23 23q0 8 -6.5 15t-17.5 9z" />
<glyph unicode="&#xe6;" horiz-adv-x="904" d="M696 3q-71 0 -131 28q-66 32 -96 90v-118h-257q-65 0 -111.5 50.5t-46.5 115.5q0 96 88 136q62 27 181 27l59 -1l50 -1q0 116 -180 116h-27q-9 0 -55 -4l-66 -3v40h203q131 0 161 -126q33 56 94 90t126 34h158v-40l-112 3q-89 0 -144.5 -26.5t-82.5 -85.5h339v-42h-362 l-4 -45q0 -98 60 -148q48 -37 141 -48q4 0 59 -2t106 -2v-38h-150zM431 290h-197q-52 0 -94 -36.5t-42 -88.5q0 -60 41 -94q36 -30 99 -30h193v249z" />
<glyph unicode="&#xe7;" horiz-adv-x="513" d="M94 241q0 -99 61 -148q48 -37 144 -48q4 0 59 -2t106 -2v-38h-135v-58l25 1q106 0 106 -70q0 -30 -22.5 -50t-53.5 -20h-63l1 6h16h13q43 0 55 4q48 11 48 57q0 47 -47 60q-20 5 -86 5v65q-114 0 -189.5 62t-75.5 176q0 101 73.5 168.5t176.5 67.5h160v-40l-112 2 q-110 0 -177 -42q-83 -51 -83 -156z" />
<glyph unicode="&#xe8;" horiz-adv-x="517" d="M304 3q-113 0 -185 60q-75 63 -75 175q0 101 74 169t176 68h160l-1 -39l-62 1l-64 1q-78 0 -132 -22.5t-82 -87.5h341v-42h-361l-5 -44q0 -98 60 -149q48 -39 141 -48q4 0 59 -2t106 -2v-38h-150zM352 545l-54 74h35l51 -74h-32z" />
<glyph unicode="&#xe9;" horiz-adv-x="509" d="M304 3q-113 0 -185 60q-75 63 -75 175q0 101 74 169t176 68h160l-1 -39l-62 1l-64 1q-78 0 -132 -22.5t-82 -87.5h341v-42h-361l-5 -44q0 -98 60 -149q48 -39 141 -48q4 0 59 -2t106 -2v-38h-150zM315 551h-31l52 74h35z" />
<glyph unicode="&#xea;" horiz-adv-x="513" d="M304 3q-113 0 -185 60q-75 63 -75 175q0 101 74 169t176 68h160l-1 -39l-62 1l-64 1q-78 0 -132 -22.5t-82 -87.5h341v-42h-361l-5 -44q0 -98 60 -149q48 -39 141 -48q4 0 59 -2t106 -2v-38h-150zM390 553l-60 66l-61 -66h-50l82 77h66l68 -77h-45z" />
<glyph unicode="&#xeb;" horiz-adv-x="513" d="M305 3q-113 0 -185 60q-75 63 -75 175q0 101 74 169t176 68h160l-1 -39l-62 1l-64 1q-78 0 -132 -22.5t-82 -87.5h341v-42h-361l-5 -44q0 -98 60 -149q48 -39 141 -48q4 0 59 -2t106 -2v-38h-150zM401 551q-33 0 -33 32q0 10 10.5 19t22.5 11q31 0 31 -31t-31 -31z M282 551q-31 0 -31 31q0 32 32 32q12 0 21.5 -9t10.5 -23q0 -31 -33 -31z" />
<glyph unicode="&#xec;" horiz-adv-x="174" d="M115 551l-54 74h34l51 -74h-31zM86 3v462h40v-462h-40z" />
<glyph unicode="&#xed;" horiz-adv-x="183" d="M96 551h-32l51 74h35zM86 3v462h40v-462h-40z" />
<glyph unicode="&#xee;" horiz-adv-x="176" d="M169 553l-61 66l-60 -66h-51l82 77h66l68 -77h-44zM86 3v462h40v-462h-40z" />
<glyph unicode="&#xef;" horiz-adv-x="176" d="M171 551q-32 0 -32 32q0 30 32 30t32 -31t-32 -31zM53 551q-31 0 -31 31q0 32 31 32q12 0 22 -9t11 -23q0 -12 -9.5 -21.5t-23.5 -9.5zM87 3v462h40v-462h-40z" />
<glyph unicode="&#xf1;" horiz-adv-x="515" d="M417 1v284q0 62 -48.5 110t-111.5 48q-105 0 -148 -85q-32 -64 -32 -184l3 -93l3 -78h-40v280q0 84 67 144q64 56 151 56q74 0 135 -56.5t61 -131.5v-294h-40zM309 547q-68 21 -83 21q-11 0 -21 -19h-38q0 23 14 40q12 17 34 17q9 0 30.5 -6t56.5 -20q24 6 27 26h33v-8 q0 -39 -53 -51z" />
<glyph unicode="&#xf2;" horiz-adv-x="593" d="M278 -3q-100 0 -171 71t-71 171t71 172t171 72q99 0 171 -72.5t72 -171.5t-71.5 -170.5t-171.5 -71.5zM278 443q-83 0 -142.5 -60.5t-59.5 -143.5q0 -84 58.5 -144.5t143.5 -60.5q83 0 142.5 60.5t59.5 144.5q0 81 -59.5 142.5t-142.5 61.5zM299 551l-55 74h35l52 -74 h-32z" />
<glyph unicode="&#xf3;" horiz-adv-x="584" d="M278 -3q-100 0 -171 71t-71 171t71 172t171 72q99 0 171 -72.5t72 -171.5t-71.5 -170.5t-171.5 -71.5zM278 443q-83 0 -142.5 -60.5t-59.5 -143.5q0 -84 58.5 -144.5t143.5 -60.5q83 0 142.5 60.5t59.5 144.5q0 81 -59.5 142.5t-142.5 61.5zM273 549h-31l52 74h34z" />
<glyph unicode="&#xf4;" horiz-adv-x="595" d="M278 -3q-100 0 -171 71t-71 171t71 172t171 72q99 0 171 -72.5t72 -171.5t-71.5 -170.5t-171.5 -71.5zM278 443q-83 0 -142.5 -60.5t-59.5 -143.5q0 -84 58.5 -144.5t143.5 -60.5q83 0 142.5 60.5t59.5 144.5q0 81 -59.5 142.5t-142.5 61.5zM348 553l-60 66l-61 -66h-50 l82 77h66l67 -77h-44z" />
<glyph unicode="&#xf5;" horiz-adv-x="593" d="M278 -3q-100 0 -171 71t-71 171t71 172t171 72q99 0 171 -72.5t72 -171.5t-71.5 -170.5t-171.5 -71.5zM278 443q-83 0 -142.5 -60.5t-59.5 -143.5q0 -84 58.5 -144.5t143.5 -60.5q83 0 142.5 60.5t59.5 144.5q0 81 -59.5 142.5t-142.5 61.5zM344 547q-10 0 -36.5 9.5 t-45.5 11.5q-16 0 -22 -19h-39q0 22 14 39.5t34 17.5q9 0 30.5 -6t56.5 -20q24 6 27 26h33v-7q0 -19 -16.5 -35.5t-35.5 -16.5z" />
<glyph unicode="&#xf6;" horiz-adv-x="593" d="M278 -3q-100 0 -171 71t-71 171t71 172t171 72q99 0 171 -72.5t72 -171.5t-71.5 -170.5t-171.5 -71.5zM278 443q-83 0 -142.5 -60.5t-59.5 -143.5q0 -84 58.5 -144.5t143.5 -60.5q83 0 142.5 60.5t59.5 144.5q0 81 -59.5 142.5t-142.5 61.5zM353 549q-11 0 -23 9 q-9 9 -10 23q0 12 9.5 21t22.5 9q32 0 32 -31t-31 -31zM234 549q-31 0 -31 31q0 32 32 32q12 0 21.5 -9t10.5 -23q0 -31 -33 -31z" />
<glyph unicode="&#xf7;" horiz-adv-x="536" d="M268 310q-20 0 -36 15t-16 39q0 21 15.5 36t37.5 15q21 0 36 -15.5t15 -36.5t-16 -37t-36 -16zM45 201v61h448v-61h-448zM269 46q-21 0 -36.5 15.5t-15.5 38.5q0 21 16 36.5t37 15.5t36 -15t15 -38q0 -21 -16 -37t-36 -16z" />
<glyph unicode="&#xf8;" horiz-adv-x="588" d="M296 -3q-39 0 -78 15l-15 -33l-32 16l14 30q-59 31 -94 89.5t-35 126.5q0 96 72 169t170 73q37 0 86 -16l15 37l32 -15l-16 -36q56 -31 90.5 -90t34.5 -122q0 -98 -71.5 -171t-172.5 -73zM401 418l-170 -376q1 0 24 -6.5t32 -6.5q89 0 151.5 60t62.5 151q0 52 -27 99.5 t-73 78.5zM299 445q-79 0 -140.5 -62.5t-61.5 -141.5q0 -122 103 -183l170 376q-33 11 -71 11z" />
<glyph unicode="&#xf9;" horiz-adv-x="515" d="M276 -7q-90 0 -151 58q-29 28 -45 65.5t-16 82.5v280h39v-279q0 -72 49.5 -122t121.5 -50q59 0 109.5 48t50.5 108v295h38l1 -292q0 -76 -60 -135t-137 -59zM296 553l-56 74h35l52 -74h-31z" />
<glyph unicode="&#xfa;" horiz-adv-x="517" d="M276 -7q-90 0 -151 58q-29 28 -45 65.5t-16 82.5v280h39v-279q0 -72 49.5 -122t121.5 -50q59 0 109.5 48t50.5 108v295h38l1 -292q0 -76 -60 -135t-137 -59zM269 551h-31l52 74h34z" />
<glyph unicode="&#xfb;" horiz-adv-x="513" d="M276 -7q-90 0 -151 58q-29 28 -45 65.5t-16 82.5v280h39v-279q0 -72 49.5 -122t121.5 -50q59 0 109.5 48t50.5 108v295h38l1 -292q0 -76 -60 -135t-137 -59zM350 553l-60 66l-61 -66h-50l82 77h66l67 -77h-44z" />
<glyph unicode="&#xfc;" horiz-adv-x="509" d="M277 -7q-90 0 -151 58q-29 28 -45 65.5t-16 82.5v280h39v-279q0 -72 49.5 -122t121.5 -50q59 0 109.5 48t50.5 108v295h38l1 -292q0 -76 -60 -135t-137 -59zM346 553q-12 0 -23 8.5t-12 23.5q0 12 10.5 21t23.5 9q32 0 32 -31t-31 -31zM227 553q-31 0 -31 31t32 31 q34 0 34 -31q0 -12 -10 -21.5t-25 -9.5z" />
<glyph unicode="&#xfd;" horiz-adv-x="508" d="M90 543h-31l50 75h35zM258 -280q-91 0 -144 52q-28 27 -43 62t-15 79h40q0 -63 47 -113q44 -46 111 -46q102 0 138 80q24 53 24 169l-75 -3l-79 -2q-96 0 -145 28q-63 38 -63 133v309h40v-321q0 -44 30 -75t76 -31h216v426h40v-544q0 -82 -58.5 -142.5t-139.5 -60.5z" />
<glyph unicode="&#xff;" horiz-adv-x="509" d="M258 -280q-91 0 -144 52q-28 27 -43 62t-15 79h40q0 -63 47 -113q44 -46 111 -46q102 0 138 80q24 53 24 169l-75 -3l-79 -2q-96 0 -145 28q-63 38 -63 133v309h40v-321q0 -44 30 -75t76 -31h216v426h40v-544q0 -82 -58.5 -142.5t-139.5 -60.5zM332 553q-33 0 -33 32 q0 12 9.5 21t23.5 9q31 0 31 -31t-31 -31zM214 553q-32 0 -32 31q0 32 32 32q12 0 22 -9t11 -23q0 -12 -9.5 -21.5t-23.5 -9.5z" />
<glyph unicode="&#x152;" horiz-adv-x="1118" d="M593 660v-197h473v-44h-473v-386h473v-36l-307 -4l-306 -4q-173 0 -286 99q-117 104 -117 276q0 142 107 246.5t249 104.5q23 0 70 -9q22 -4 38.5 -6t30.5 -2h525v-38h-477zM552 645q-83 34 -146 34q-132 0 -225 -96t-93 -230q0 -122 95.5 -224.5t219.5 -102.5 q85 0 149 34v585z" />
<glyph unicode="&#x153;" horiz-adv-x="961" d="M763 -1q-47 0 -82 7t-59 22q-40 25 -99 104q-27 -61 -88.5 -100t-128.5 -39q-99 0 -170.5 73t-71.5 173q0 96 72.5 168t170.5 72q147 0 221 -143q29 66 91 103.5t138 37.5h158v-40l-102 2q-95 0 -155 -27.5t-85 -83.5h342v-42h-359q-3 -14 -5 -25t-2 -22q0 -100 60 -150 q48 -39 141 -48q4 0 59 -2t106 -2v-38h-152zM306 441q-79 0 -141 -60.5t-62 -137.5q0 -75 61 -145t135 -70q86 0 147 63t61 152q0 78 -60.5 138t-140.5 60z" />
<glyph unicode="&#x178;" horiz-adv-x="580" d="M308 421v-418h-36v418l-223 279h43l198 -247l202 249h43zM354 742q-12 0 -22 9.5t-11 23.5q0 12 10.5 21.5t23.5 9.5q32 0 32 -32t-33 -32zM236 742q-11 0 -21 9t-10 23q0 32 31 32q12 0 22 -9t12 -23q0 -12 -9.5 -22t-24.5 -10z" />
<glyph unicode="&#x2c6;" horiz-adv-x="464" d="M392 475l-60 67l-61 -67h-50l82 79h66l68 -79h-45z" />
<glyph unicode="&#x2dc;" horiz-adv-x="452" d="M372 583q-13 0 -40 10q-13 5 -22 7.5t-20 3.5q-16 0 -22 -19l-38 1q0 21 14 38.5t34 17.5q19 0 87 -26q24 6 27 26h33v-7q0 -19 -16.5 -35.5t-36.5 -16.5z" />
<glyph unicode="&#x2000;" horiz-adv-x="432" />
<glyph unicode="&#x2001;" horiz-adv-x="864" />
<glyph unicode="&#x2002;" horiz-adv-x="432" />
<glyph unicode="&#x2003;" horiz-adv-x="864" />
<glyph unicode="&#x2004;" horiz-adv-x="288" />
<glyph unicode="&#x2005;" horiz-adv-x="216" />
<glyph unicode="&#x2006;" horiz-adv-x="144" />
<glyph unicode="&#x2007;" horiz-adv-x="144" />
<glyph unicode="&#x2008;" horiz-adv-x="108" />
<glyph unicode="&#x2009;" horiz-adv-x="172" />
<glyph unicode="&#x200a;" horiz-adv-x="48" />
<glyph unicode="&#x2010;" horiz-adv-x="297" d="M52 332v37h191v-37h-191z" />
<glyph unicode="&#x2011;" horiz-adv-x="297" d="M52 332v37h191v-37h-191z" />
<glyph unicode="&#x2013;" horiz-adv-x="444" d="M58 326v41h342v-41h-342z" />
<glyph unicode="&#x2014;" horiz-adv-x="808" d="M58 328v43h696v-43h-696z" />
<glyph unicode="&#x2018;" horiz-adv-x="171" d="M50 485v119q0 77 71 101l-1 -33q-34 -19 -34 -57v-47h35v-83h-71z" />
<glyph unicode="&#x2019;" horiz-adv-x="169" d="M52 482l-1 33q35 15 35 55v49h-34v83h69l-1 -120q0 -34 -18.5 -62t-49.5 -38z" />
<glyph unicode="&#x201c;" horiz-adv-x="320" d="M239 613v-47h33v-83h-69v119q0 77 70 101v-32q-34 -23 -34 -58zM54 485v120q0 74 69 100l-1 -33q-34 -22 -34 -57v-47h35v-83h-69z" />
<glyph unicode="&#x201d;" horiz-adv-x="325" d="M205 486l-1 31q35 21 35 57v47h-34v83h68l1 -119q0 -76 -69 -99zM56 486v32q32 18 32 56v47h-32v83h68l1 -119q0 -76 -69 -99z" />
<glyph unicode="&#x201e;" horiz-adv-x="325" d="M205 -126l-1 31q35 21 35 57v47h-34v82h68l1 -119q0 -33 -18.5 -60.5t-50.5 -37.5zM56 -126v31q32 18 32 57v47h-32v82h68l1 -119q0 -33 -18.5 -60.5t-50.5 -37.5z" />
<glyph unicode="&#x2026;" horiz-adv-x="469" d="M403 1l-15 5q-3 5 -5 14l6 14q7 6 14 7l13 -6l2 -8l3 -7q0 -10 -5 -13zM236 1l-13 5l-7 14q0 12 7 15l14 6q20 -3 20 -21q0 -19 -21 -19zM72 1l-7 2l-7 3q-6 8 -6 14q0 11 5 14l15 7q20 -3 20 -21q0 -19 -20 -19z" />
<glyph unicode="&#x202f;" horiz-adv-x="172" />
<glyph unicode="&#x2039;" horiz-adv-x="536" d="M523 752l-284 -769h-27l-153 424l-60 -22l-10 33l130 45l124 -344l249 673h86v-40h-55z" />
<glyph unicode="&#x203a;" horiz-adv-x="588" d="M52 3v60l422 198l-422 189v60l496 -225v-50z" />
<glyph unicode="&#x205f;" horiz-adv-x="216" />
<glyph unicode="&#x20ac;" horiz-adv-x="620" d="M431 334l-14 -32h-332q16 -166 176 -227q101 -38 311 -38v-36h-183q-143 0 -244 102.5t-101 248.5q0 156 109 255t266 99h153v-40q-106 0 -182.5 -9t-128.5 -29q-154 -60 -175 -230h372l-13 -32h-361l-1 -23v-9h348z" />
<glyph unicode="&#x2122;" horiz-adv-x="703" d="M628 357v326l-120 -326h-29l-117 328v-328h-29v345h49l113 -315l117 315h45v-345h-29zM189 680v-323h-26v323h-111v26h249v-26h-112z" />
</font>
</defs>
</svg>
